# File created by Blade
# Date/Time:  Thu Sep 25 19:32:06 2014
# Frame Rate: 120.000 fps
#------------------------------------------------------
:FULLY-SPECIFIED
:DEGREES
2329
root 6.721798 31.572211 -3.398721 3.021929 -16.952035 -13.490605
Spine -14.298659 9.551641 -38.896304
Head 16.330960 33.146327 -4.694891
LeftShoulder -7.214554 24.539999 3.080200
LeftArm 14.956096 13.530764 -54.643670
LeftForeArm 4.620072 -0.000000 9.748513
LeftHand -26.770020 -0.000000 -4.643465
LeftHandThumb1 -26.253704 0.000000 33.147579
RightShoulder -17.489168 23.309477 -52.060668
RightArm 23.640076 38.091521 16.911288
RightForeArm 24.961601 -0.000000 28.719985
RightHand 4.943948 -0.000000 -3.957554
RightHandThumb1 -24.326973 -0.000000 -32.862282
LeftUpLeg -18.964016 4.908058 6.037379
LeftLeg 43.381282 -0.000000 -0.000000
LeftFoot -33.797414 18.002059 -20.169767
LeftToeBase 10.135683 -0.000000 -0.000000
RightUpLeg 9.536506 -2.034041 27.257502
RightLeg 0.804959 -0.000000 -0.000000
RightFoot -8.975360 1.924408 -2.484515
RightToeBase -2.058932 -0.000000 0.000000
2330
root 6.738130 31.575618 -3.402110 3.052185 -16.953984 -13.458900
Spine -14.277978 9.578428 -38.824237
Head 16.224525 32.845396 -4.592519
LeftShoulder -7.186248 24.476328 3.096696
LeftArm 14.938617 13.499382 -54.704279
LeftForeArm 4.799887 -0.000000 9.770964
LeftHand -26.723185 0.000000 -4.864020
LeftHandThumb1 -26.253704 0.000000 33.147579
RightShoulder -17.473437 23.248091 -51.987787
RightArm 23.540578 38.075321 16.832231
RightForeArm 24.940183 -0.000000 28.639905
RightHand 5.013932 -0.000000 -3.965147
RightHandThumb1 -24.326973 -0.000000 -32.862282
LeftUpLeg -18.996324 4.987689 5.978602
LeftLeg 43.330199 -0.000000 -0.000000
LeftFoot -33.734718 17.880178 -20.271673
LeftToeBase 9.941395 -0.000000 -0.000000
RightUpLeg 9.493982 -1.981090 27.211299
RightLeg 0.792501 -0.000000 -0.000000
RightFoot -8.973074 1.882760 -2.499875
RightToeBase -2.114223 -0.000000 0.000000
2331
root 6.755546 31.579048 -3.402841 3.066001 -16.953590 -13.429019
Spine -14.248549 9.618623 -38.740898
Head 16.124524 32.477851 -4.471883
LeftShoulder -7.146146 24.453350 3.107763
LeftArm 14.940956 13.496462 -54.766358
LeftForeArm 4.844823 -0.000000 9.806920
LeftHand -26.793031 -0.000000 -4.707835
LeftHandThumb1 -26.253704 0.000000 33.147579
RightShoulder -17.427638 23.196279 -51.917593
RightArm 23.375616 38.085770 16.760294
RightForeArm 24.880721 -0.000000 28.613770
RightHand 4.967364 -0.000000 -3.886498
RightHandThumb1 -24.326973 -0.000000 -32.862282
LeftUpLeg -19.009358 5.085071 5.915565
LeftLeg 43.280254 -0.000000 -0.000000
LeftFoot -33.690892 17.894319 -20.089020
LeftToeBase 10.189497 -0.000000 -0.000000
RightUpLeg 9.465231 -1.950286 27.160774
RightLeg 0.791894 -0.000000 -0.000000
RightFoot -8.987067 1.835584 -2.549498
RightToeBase -2.055908 -0.000000 0.000000
2332
root 6.772785 31.581974 -3.404172 3.091515 -16.935509 -13.415594
Spine -14.193367 9.668847 -38.625395
Head 15.907477 32.097025 -4.460568
LeftShoulder -7.121564 24.383936 3.114388
LeftArm 14.968178 13.630667 -54.794135
LeftForeArm 4.780601 -0.000000 9.799934
LeftHand -26.824366 0.000000 -4.561166
LeftHandThumb1 -26.253704 0.000000 33.147579
RightShoulder -17.475629 23.258283 -51.974044
RightArm 23.169403 37.882134 16.711087
RightForeArm 24.955411 -0.000000 28.543558
RightHand 5.027964 -0.000000 -3.875370
RightHandThumb1 -24.326973 -0.000000 -32.862282
LeftUpLeg -19.036434 5.142092 5.871800
LeftLeg 43.239323 -0.000000 -0.000000
LeftFoot -33.640495 17.837879 -20.078613
LeftToeBase 10.154011 -0.000000 -0.000000
RightUpLeg 9.423424 -1.952646 27.121962
RightLeg 0.788114 -0.000000 -0.000000
RightFoot -8.990698 1.849128 -2.569644
RightToeBase -2.080718 -0.000000 0.000000
2333
root 6.790619 31.584848 -3.406538 3.134425 -16.914588 -13.396696
Spine -14.166342 9.687574 -38.503955
Head 15.736063 31.657947 -4.360506
LeftShoulder -7.110775 24.315235 3.116837
LeftArm 14.960334 13.701824 -54.848845
LeftForeArm 4.799246 -0.000000 9.826345
LeftHand -26.779401 -0.000000 -4.479030
LeftHandThumb1 -26.253704 0.000000 33.147579
RightShoulder -17.460771 23.201704 -51.942650
RightArm 23.027525 37.883930 16.713230
RightForeArm 24.889347 0.000000 28.498317
RightHand 4.910840 -0.000000 -4.014912
RightHandThumb1 -24.326973 -0.000000 -32.862282
LeftUpLeg -19.075353 5.202872 5.820596
LeftLeg 43.182615 -0.000000 -0.000000
LeftFoot -33.601338 17.777852 -20.045722
LeftToeBase 10.110790 -0.000000 -0.000000
RightUpLeg 9.362332 -1.937160 27.084903
RightLeg 0.784399 -0.000000 -0.000000
RightFoot -8.985942 1.818332 -2.584749
RightToeBase -2.147611 -0.000000 0.000000
2334
root 6.808721 31.588996 -3.406287 3.166622 -16.906214 -13.371257
Spine -14.134352 9.713493 -38.390712
Head 15.513294 31.244158 -4.268164
LeftShoulder -7.193985 24.424802 3.089055
LeftArm 15.197458 13.736987 -54.839127
LeftForeArm 4.798556 -0.000000 9.778967
LeftHand -26.705131 -0.000000 -4.526072
LeftHandThumb1 -26.253704 0.000000 33.147579
RightShoulder -17.477656 23.174313 -51.885795
RightArm 22.969732 37.859049 16.718256
RightForeArm 24.971698 -0.000000 28.327269
RightHand 5.118287 -0.000000 -3.802146
RightHandThumb1 -24.326973 -0.000000 -32.862282
LeftUpLeg -19.093385 5.300724 5.763469
LeftLeg 43.110527 -0.000000 -0.000000
LeftFoot -33.545507 17.731739 -19.956030
LeftToeBase 10.183317 -0.000000 -0.000000
RightUpLeg 9.317739 -1.943199 27.033187
RightLeg 0.776979 -0.000000 -0.000000
RightFoot -8.982895 1.806142 -2.632348
RightToeBase -2.158767 -0.000000 0.000000
2335
root 6.825962 31.593418 -3.409298 3.221689 -16.888115 -13.368334
Spine -14.114899 9.730590 -38.244977
Head 15.297322 30.817246 -4.148210
LeftShoulder -7.252630 24.473143 3.068897
LeftArm 15.341166 13.749995 -54.865529
LeftForeArm 4.794948 -0.000000 9.817880
LeftHand -26.740288 -0.000000 -4.405373
LeftHandThumb1 -26.253704 0.000000 33.147579
RightShoulder -17.474734 23.112150 -51.810852
RightArm 22.902925 37.849072 16.711224
RightForeArm 24.964987 -0.000000 28.154384
RightHand 5.142110 -0.000000 -3.887956
RightHandThumb1 -24.326973 -0.000000 -32.862282
LeftUpLeg -19.135845 5.362806 5.744838
LeftLeg 43.043267 -0.000000 -0.000000
LeftFoot -33.458355 17.627194 -19.842014
LeftToeBase 10.189882 -0.000000 -0.000000
RightUpLeg 9.296660 -1.798903 27.022388
RightLeg 0.673400 -0.000000 -0.000000
RightFoot -8.899403 1.730555 -2.559094
RightToeBase -2.227105 -0.000000 0.000000
2336
root 6.840833 31.597601 -3.413385 3.278905 -16.871623 -13.390365
Spine -14.078217 9.756428 -38.054069
Head 15.011409 30.346939 -4.082379
LeftShoulder -7.282118 24.456986 3.032548
LeftArm 15.401527 13.730378 -54.918383
LeftForeArm 4.820089 0.000000 9.845738
LeftHand -26.717187 -0.000000 -4.368946
LeftHandThumb1 -26.253704 0.000000 33.147579
RightShoulder -17.533128 23.127912 -51.842993
RightArm 22.832894 37.779112 16.835574
RightForeArm 24.935202 -0.000000 28.030934
RightHand 5.141190 -0.000000 -3.945946
RightHandThumb1 -24.326973 -0.000000 -32.862282
LeftUpLeg -19.177785 5.433068 5.750144
LeftLeg 42.990299 -0.000000 -0.000000
LeftFoot -33.390567 17.481322 -19.894254
LeftToeBase 9.980483 -0.000000 -0.000000
RightUpLeg 9.317363 -1.590131 27.033693
RightLeg 0.490934 -0.000000 -0.000000
RightFoot -8.779211 1.677659 -2.387559
RightToeBase -2.146603 -0.000000 0.000000
2337
root 6.861210 31.602023 -3.413631 3.304492 -16.835246 -13.362107
Spine -13.992707 9.777975 -37.899105
Head 14.698604 29.837064 -4.008919
LeftShoulder -7.351105 24.462431 3.000735
LeftArm 15.547183 13.774588 -54.949074
LeftForeArm 4.910742 0.000000 9.808836
LeftHand -26.695520 0.000000 -4.472330
LeftHandThumb1 -26.253704 0.000000 33.147579
RightShoulder -17.639739 23.138191 -51.882679
RightArm 22.833072 37.758605 17.029466
RightForeArm 24.916278 0.000000 27.891037
RightHand 5.129299 -0.000000 -3.970819
RightHandThumb1 -24.326973 -0.000000 -32.862282
LeftUpLeg -19.198803 5.532538 5.668965
LeftLeg 42.920797 -0.000000 -0.000000
LeftFoot -33.351857 17.439709 -19.878790
LeftToeBase 9.997185 -0.000000 -0.000000
RightUpLeg 9.276991 -1.588815 26.980936
RightLeg 0.463369 -0.000000 -0.000000
RightFoot -8.767637 1.661013 -2.401554
RightToeBase -2.153698 -0.000000 0.000000
2338
root 6.883701 31.606472 -3.414712 3.343782 -16.793488 -13.323616
Spine -13.944415 9.790300 -37.758193
Head 14.501011 29.300399 -3.812836
LeftShoulder -7.354957 24.386070 3.020655
LeftArm 15.554694 13.937701 -55.008215
LeftForeArm 4.845713 0.000000 9.836310
LeftHand -26.745571 0.000000 -4.437902
LeftHandThumb1 -26.253704 0.000000 33.147579
RightShoulder -17.674237 23.111300 -51.849222
RightArm 22.773839 37.731149 17.125166
RightForeArm 24.958992 -0.000000 27.757040
RightHand 5.187908 -0.000000 -4.001809
RightHandThumb1 -24.326973 -0.000000 -32.862282
LeftUpLeg -19.235182 5.566411 5.592135
LeftLeg 42.842252 -0.000000 -0.000000
LeftFoot -33.287619 17.397980 -19.830520
LeftToeBase 9.921603 -0.000000 -0.000000
RightUpLeg 9.199756 -1.611624 26.915526
RightLeg 0.470408 -0.000000 -0.000000
RightFoot -8.782935 1.645864 -2.456758
RightToeBase -2.197935 -0.000000 0.000000
2339
root 6.904668 31.610704 -3.415782 3.385233 -16.756987 -13.297718
Spine -13.896156 9.805319 -37.601894
Head 14.158175 28.669158 -3.671179
LeftShoulder -7.342500 24.341055 3.078258
LeftArm 15.580478 14.053668 -55.117160
LeftForeArm 4.780327 -0.000000 9.847435
LeftHand -26.672515 -0.000000 -4.445046
LeftHandThumb1 -26.253704 0.000000 33.147579
RightShoulder -17.651735 23.287005 -51.928377
RightArm 22.420501 37.563983 17.161533
RightForeArm 24.978549 0.000000 27.749999
RightHand 5.126480 0.000000 -4.009561
RightHandThumb1 -24.326973 -0.000000 -32.862282
LeftUpLeg -19.280301 5.554191 5.525141
LeftLeg 42.786136 -0.000000 -0.000000
LeftFoot -33.247294 17.493597 -19.678190
LeftToeBase 10.166441 -0.000000 -0.000000
RightUpLeg 9.136618 -1.607682 26.867234
RightLeg 0.457419 -0.000000 -0.000000
RightFoot -8.791409 1.616231 -2.500034
RightToeBase -2.120211 -0.000000 0.000000
2340
root 6.928526 31.615073 -3.416905 3.434521 -16.696762 -13.267214
Spine -13.845095 9.806945 -37.421771
Head 13.875989 28.005969 -3.559862
LeftShoulder -7.299398 24.187504 3.133936
LeftArm 15.464918 14.131235 -55.282134
LeftForeArm 4.936726 0.000000 9.896781
LeftHand -26.664571 0.000000 -4.480164
LeftHandThumb1 -26.253704 0.000000 33.147579
RightShoulder -17.675613 23.376262 -51.964771
RightArm 22.254108 37.451582 17.251644
RightForeArm 25.004576 0.000000 27.662770
RightHand 5.142981 0.000000 -4.136176
RightHandThumb1 -24.326973 -0.000000 -32.862282
LeftUpLeg -19.325239 5.630464 5.462499
LeftLeg 42.703608 -0.000000 -0.000000
LeftFoot -33.148361 17.299600 -19.694412
LeftToeBase 9.962981 -0.000000 -0.000000
RightUpLeg 9.062852 -1.581557 26.812690
RightLeg 0.436497 -0.000000 -0.000000
RightFoot -8.802913 1.493971 -2.536566
RightToeBase -2.125693 -0.000000 0.000000
2341
root 6.951092 31.620260 -3.417533 3.456828 -16.637098 -13.240215
Spine -13.754506 9.825532 -37.231808
Head 13.591156 27.355549 -3.404544
LeftShoulder -7.308159 24.155584 3.143745
LeftArm 15.560634 14.325200 -55.319924
LeftForeArm 4.846217 -0.000000 9.862140
LeftHand -26.659087 -0.000000 -4.591005
LeftHandThumb1 -26.253704 0.000000 33.147579
RightShoulder -17.677122 23.379304 -51.928187
RightArm 22.086431 37.438549 17.278156
RightForeArm 24.925159 -0.000000 27.598103
RightHand 5.113695 0.000000 -3.913732
RightHandThumb1 -24.326973 -0.000000 -32.862282
LeftUpLeg -19.364611 5.586101 5.390930
LeftLeg 42.674943 -0.000000 -0.000000
LeftFoot -33.078169 17.400281 -19.596399
LeftToeBase 10.059348 -0.000000 -0.000000
RightUpLeg 9.011722 -1.607901 26.756418
RightLeg 0.411130 -0.000000 -0.000000
RightFoot -8.772797 1.543787 -2.530656
RightToeBase -2.227787 -0.000000 0.000000
